<svg xmlns="http://www.w3.org/2000/svg" xmlns:xlink="http://www.w3.org/1999/xlink" width="500" zoomAndPan="magnify" viewBox="0 0 375 374.999991" height="500" preserveAspectRatio="xMidYMid meet" version="1.0"><defs><g/></defs><g fill="#1e387b" fill-opacity="1"><g transform="translate(76.980079, 213.470244)"><g><path d="M 28.71875 -53.578125 C 31.695312 -53.578125 34.640625 -53.238281 37.546875 -52.5625 C 40.453125 -51.882812 42.617188 -51.210938 44.046875 -50.546875 L 46.171875 -49.53125 L 40.296875 -37.75 C 36.234375 -39.914062 32.375 -41 28.71875 -41 C 26.6875 -41 25.25 -40.78125 24.40625 -40.34375 C 23.5625 -39.90625 23.140625 -39.078125 23.140625 -37.859375 C 23.140625 -37.585938 23.171875 -37.316406 23.234375 -37.046875 C 23.304688 -36.773438 23.441406 -36.519531 23.640625 -36.28125 C 23.847656 -36.039062 24.035156 -35.835938 24.203125 -35.671875 C 24.367188 -35.503906 24.65625 -35.316406 25.0625 -35.109375 C 25.46875 -34.910156 25.789062 -34.757812 26.03125 -34.65625 C 26.269531 -34.550781 26.660156 -34.394531 27.203125 -34.1875 C 27.742188 -33.988281 28.148438 -33.835938 28.421875 -33.734375 C 28.691406 -33.640625 29.144531 -33.488281 29.78125 -33.28125 C 30.425781 -33.082031 30.914062 -32.945312 31.25 -32.875 C 33.351562 -32.269531 35.179688 -31.59375 36.734375 -30.84375 C 38.296875 -30.101562 39.9375 -29.085938 41.65625 -27.796875 C 43.382812 -26.515625 44.722656 -24.894531 45.671875 -22.9375 C 46.617188 -20.976562 47.09375 -18.742188 47.09375 -16.234375 C 47.09375 -4.398438 38.867188 1.515625 22.421875 1.515625 C 18.703125 1.515625 15.164062 0.941406 11.8125 -0.203125 C 8.46875 -1.347656 6.050781 -2.5 4.5625 -3.65625 L 2.328125 -5.484375 L 9.640625 -17.765625 C 10.179688 -17.285156 10.890625 -16.722656 11.765625 -16.078125 C 12.648438 -15.441406 14.242188 -14.5625 16.546875 -13.4375 C 18.847656 -12.320312 20.84375 -11.765625 22.53125 -11.765625 C 26.25 -11.765625 28.109375 -13.019531 28.109375 -15.53125 C 28.109375 -16.675781 27.632812 -17.570312 26.6875 -18.21875 C 25.738281 -18.863281 24.128906 -19.585938 21.859375 -20.390625 C 19.597656 -21.203125 17.828125 -21.945312 16.546875 -22.625 C 13.296875 -24.320312 10.722656 -26.234375 8.828125 -28.359375 C 6.929688 -30.492188 5.984375 -33.320312 5.984375 -36.84375 C 5.984375 -42.113281 8.03125 -46.21875 12.125 -49.15625 C 16.21875 -52.101562 21.75 -53.578125 28.71875 -53.578125 Z M 28.71875 -53.578125 "/></g></g></g><g fill="#1e387b" fill-opacity="1"><g transform="translate(117.362594, 213.470244)"><g><path d="M 11 -6.1875 C 5.21875 -11.332031 2.328125 -17.929688 2.328125 -25.984375 C 2.328125 -34.035156 5.335938 -40.644531 11.359375 -45.8125 C 17.378906 -50.988281 24.820312 -53.578125 33.6875 -53.578125 C 42.414062 -53.578125 49.773438 -50.972656 55.765625 -45.765625 C 61.753906 -40.554688 64.75 -33.957031 64.75 -25.96875 C 64.75 -17.988281 61.820312 -11.410156 55.96875 -6.234375 C 50.113281 -1.066406 42.6875 1.515625 33.6875 1.515625 C 24.351562 1.515625 16.789062 -1.050781 11 -6.1875 Z M 24.90625 -34.8125 C 22.570312 -32.507812 21.40625 -29.5625 21.40625 -25.96875 C 21.40625 -22.382812 22.519531 -19.457031 24.75 -17.1875 C 26.988281 -14.925781 29.9375 -13.796875 33.59375 -13.796875 C 37.113281 -13.796875 40.003906 -14.945312 42.265625 -17.25 C 44.535156 -19.550781 45.671875 -22.460938 45.671875 -25.984375 C 45.671875 -29.566406 44.503906 -32.507812 42.171875 -34.8125 C 39.835938 -37.113281 36.976562 -38.265625 33.59375 -38.265625 C 30.144531 -38.265625 27.25 -37.113281 24.90625 -34.8125 Z M 24.90625 -34.8125 "/></g></g></g><g fill="#1e387b" fill-opacity="1"><g transform="translate(174.893242, 213.470244)"><g><path d="M 65.5625 -52.0625 L 40.796875 -27.203125 L 68 0 L 44.859375 0 L 24.046875 -20.796875 L 24.046875 0 L 6.09375 0 L 6.09375 -87.28125 L 24.046875 -87.28125 L 24.046875 -33.890625 L 42.21875 -52.0625 Z M 65.5625 -52.0625 "/></g></g></g><g fill="#1e387b" fill-opacity="1"><g transform="translate(230.901879, 213.470244)"><g><path d="M 11 -6.1875 C 5.21875 -11.332031 2.328125 -17.929688 2.328125 -25.984375 C 2.328125 -34.035156 5.335938 -40.644531 11.359375 -45.8125 C 17.378906 -50.988281 24.820312 -53.578125 33.6875 -53.578125 C 42.414062 -53.578125 49.773438 -50.972656 55.765625 -45.765625 C 61.753906 -40.554688 64.75 -33.957031 64.75 -25.96875 C 64.75 -17.988281 61.820312 -11.410156 55.96875 -6.234375 C 50.113281 -1.066406 42.6875 1.515625 33.6875 1.515625 C 24.351562 1.515625 16.789062 -1.050781 11 -6.1875 Z M 24.90625 -34.8125 C 22.570312 -32.507812 21.40625 -29.5625 21.40625 -25.96875 C 21.40625 -22.382812 22.519531 -19.457031 24.75 -17.1875 C 26.988281 -14.925781 29.9375 -13.796875 33.59375 -13.796875 C 37.113281 -13.796875 40.003906 -14.945312 42.265625 -17.25 C 44.535156 -19.550781 45.671875 -22.460938 45.671875 -25.984375 C 45.671875 -29.566406 44.503906 -32.507812 42.171875 -34.8125 C 39.835938 -37.113281 36.976562 -38.265625 33.59375 -38.265625 C 30.144531 -38.265625 27.25 -37.113281 24.90625 -34.8125 Z M 24.90625 -34.8125 "/></g></g></g></svg>